<?xml version="1.0" standalone="no"?>
<!DOCTYPE svg PUBLIC "-//W3C//DTD SVG 1.1//EN" "http://www.w3.org/Graphics/SVG/1.1/DTD/svg11.dtd" >
<svg xmlns="http://www.w3.org/2000/svg">
<metadata>Generated by IcoMoon</metadata>
<defs>
<font id="icomoon" horiz-adv-x="1024">
<font-face units-per-em="1024" ascent="960" descent="-64" />
<missing-glyph horiz-adv-x="1024" />
<glyph unicode="&#x20;" horiz-adv-x="512" d="" />
<glyph unicode="&#xe900;" glyph-name="wifi-quality_auth-locked" d="M131.2-56.397h468.544c46.106 0 83.597 42.048 83.597 93.734v354.368c0 51.674-37.491 93.722-83.571 93.734v88.461c0 129.357-105.114 234.598-234.304 234.598s-234.304-105.242-234.304-234.598v-88.461c-46.080-0.013-83.571-42.061-83.571-93.734v-354.368c0.013-51.686 37.504-93.734 83.61-93.734zM336.73 210.995c-22.208 11.187-36.557 33.997-36.557 58.125 0 36.058 29.299 65.382 65.318 65.382s65.318-29.338 65.318-65.382c0-24.115-14.349-46.938-36.557-58.125l-2.867-1.434v-114.982h-51.802v114.982l-2.854 1.434zM365.478 714.701c77.478 0 140.518-63.168 140.518-140.8v-88.461h-281.037v88.461c0 77.645 63.040 140.8 140.518 140.8z" />
<glyph unicode="&#xe901;" glyph-name="wifi-quality_auth-shielded" horiz-adv-x="730" d="M364.8-12.8c0 0 308.416 87.002 321.075 249.51 12.634 162.355 32.755 420.173 32.794 420.723-0.013 0-8.333-3.43-30.4-3.43-28.045 0-78.336 5.53-162.061 30.63-149.619 44.8-161.408 83.366-161.408 83.366s-11.789-38.566-161.382-83.366c-83.725-25.088-134.016-30.63-162.074-30.63-22.067 0-30.374 3.418-30.387 3.43 0.051-0.55 20.147-258.381 32.806-420.723 12.634-162.509 321.037-249.51 321.037-249.51zM364.8 487.194c35.354 0 64-28.672 64-64 0-26.176-15.77-48.64-38.31-58.547v-115.046h-52.006v115.405c-22.182 10.048-37.683 32.269-37.683 58.202 0 35.315 28.659 63.987 64 63.987z" />
<glyph unicode="&#xe902;" glyph-name="wifi-quality_auth-unlocked" d="M131.904-56.384h467.814c46.106 0 83.61 41.894 83.61 93.402v353.472c0 51.558-37.235 93.504-83.123 93.811v237.44c0 77.35 62.81 140.275 140.019 140.275 77.504 0 140.557-62.938 140.557-140.275v-93.158c0-0.154-0.038-0.282-0.038-0.435v-17.472l26.47-73.69-26.47-9.728v-31.283c0-25.894 20.749-46.669 46.822-46.669 25.523 0 46.835 20.762 46.835 46.669v132.16c0 0.192-0.051 0.358-0.051 0.55v93.056c0 128.947-105.024 233.843-234.125 233.843-128.806 0-233.587-104.896-233.587-233.843v-237.414h-374.733c-45.798 0-83.059-42.099-83.059-93.837v-353.472c-0.013-51.507 37.261-93.402 83.059-93.402zM337.395 210.394c-22.438 11.494-36.39 33.754-36.39 58.099 0 35.878 29.184 65.062 65.062 65.062s65.075-29.184 65.075-65.062c0-24.333-13.939-46.605-36.39-58.099l-2.829-1.446v-114.445h-51.712v114.445l-2.816 1.446z" />
<glyph unicode="&#xe903;" glyph-name="wifi-quality-bars_bars4a-1" d="M22.4 169.6h211.2v-224h-211.2v224z" />
<glyph unicode="&#xe904;" glyph-name="wifi-quality-bars_bars4a-2" d="M22.387 169.613h211.2v-224h-211.2v224zM278.413 387.213h211.174v-441.6h-211.174v441.6z" />
<glyph unicode="&#xe905;" glyph-name="wifi-quality-bars_bars4a-3" d="M22.4 169.616h211.203v-224.003h-211.203v224.003zM278.416 387.218h211.19v-441.606h-211.19v441.606zM534.407 604.808h211.203v-659.208h-211.203v659.208z" />
<glyph unicode="&#xe906;" glyph-name="wifi-quality-bars_bars4a-4" d="M22.4 169.613h211.2v-224h-211.2v224zM278.413 387.226h211.187v-441.613h-211.187v441.613zM534.4 604.813h211.2v-659.2h-211.2v659.2zM790.4 822.413h211.2v-876.8h-211.2v876.8z" />
<glyph unicode="&#xe907;" glyph-name="wifi-quality-bars_bars4b-1" d="M22.4 169.6h211.2v-224h-211.2v224zM489.6 387.2h-211.2v-441.6h211.2v441.6zM457.6-22.4h-147.2v377.6h147.2v-377.6zM745.6 604.826h-211.2v-659.226h211.2v659.226zM713.6-22.4h-147.2v595.226h147.2v-595.226zM1001.6 822.426h-211.2v-876.826h211.2v876.826zM969.6-22.4h-147.2v812.826h147.2v-812.826z" />
<glyph unicode="&#xe908;" glyph-name="wifi-quality-bars_bars4b-2" d="M22.387 169.613h211.2v-224h-211.2v224zM278.413 387.213h211.174v-441.6h-211.174v441.6zM745.587 604.813h-211.2v-659.2h211.2v659.2zM713.587-22.387h-147.2v595.2h147.2v-595.2zM1001.587 822.413h-211.2v-876.8h211.2v876.8zM969.587-22.387h-147.2v812.8h147.2v-812.8z" />
<glyph unicode="&#xe909;" glyph-name="wifi-quality-bars_bars4b-3" d="M22.4 169.616h211.203v-224.003h-211.203v224.003zM278.416 387.218h211.19v-441.606h-211.19v441.606zM534.407 604.808h211.203v-659.208h-211.203v659.208zM790.41-54.387h211.203v876.811h-211.203v-876.811zM822.41 790.411h147.202v-812.81h-147.202v812.81z" />
<glyph unicode="&#xe90a;" glyph-name="wifi-quality-bars_bars4c-1" d="M22.4 169.6h211.2v-224h-211.2v224zM281.6 830.502c-52.941 0-96-43.059-96-96v-36.262c-18.816 0-34.138-17.216-34.138-38.387v-145.101c0-21.158 15.309-38.387 34.138-38.387h192c18.816 0 34.138 17.216 34.138 38.387v145.101c0 21.158-15.309 38.387-34.138 38.387v36.262c0 52.941-43.059 96-96 96zM269.747 585.933c-9.139 4.57-14.822 13.683-14.822 23.77 0 14.707 11.968 26.662 26.662 26.662s26.662-11.968 26.662-26.662c0-10.086-5.67-19.2-14.822-23.77l-1.178-0.589v-47.117h-21.338v47.117l-1.165 0.589zM224 698.227v36.262c0 31.757 25.843 57.6 57.6 57.6s57.6-25.843 57.6-57.6v-36.262h-115.2z" />
<glyph unicode="&#xe90b;" glyph-name="wifi-quality-bars_bars4c-2" d="M23.539 168.435h208.858v-221.658h-208.858v221.658zM278.336 387.277h211.302v-441.741h-211.302v441.741zM283.2 830.49c-52.941 0-96-43.059-96-96v-36.262c-18.816 0-34.138-17.216-34.138-38.387v-145.101c0-21.158 15.309-38.387 34.138-38.387h192c18.816 0 34.138 17.216 34.138 38.387v145.101c0 21.158-15.309 38.387-34.138 38.387v36.262c0 52.941-43.059 96-96 96zM271.347 585.92c-9.139 4.57-14.822 13.683-14.822 23.77 0 14.707 11.968 26.662 26.662 26.662s26.662-11.968 26.662-26.662c0-10.086-5.67-19.2-14.822-23.77l-1.178-0.589v-47.117h-21.338v47.117l-1.165 0.589zM225.6 698.214v36.262c0 31.757 25.843 57.6 57.6 57.6s57.6-25.843 57.6-57.6v-36.262h-115.2z" />
<glyph unicode="&#xe90c;" glyph-name="wifi-quality-bars_bars4c-3" d="M43.265 176.707h211.203v-224.003h-211.203v224.003zM299.268 394.31h211.203v-441.606h-211.203v441.606zM555.271 611.912h211.203v-659.208h-211.203v659.208zM206.467 483.45h192.002c18.816 0 34.138 17.216 34.138 38.388v145.090c0 21.159-15.309 38.388-34.138 38.388v36.263c0 52.941-43.060 96.001-96.001 96.001s-96.001-43.060-96.001-96.001v-36.263c-18.816 0-34.138-17.216-34.138-38.388v-145.103c0-21.159 15.322-38.375 34.138-38.375zM290.615 593.019c-9.139 4.57-14.823 13.683-14.823 23.77 0 14.707 11.968 26.663 26.663 26.663s26.663-11.968 26.663-26.663c0-10.087-5.67-19.2-14.823-23.77l-1.178-0.589v-47.117h-21.338v47.117l-1.165 0.589zM244.867 741.591c0 31.757 25.844 57.601 57.601 57.601s57.601-25.844 57.601-57.601v-36.263h-115.201v36.263z" />
<glyph unicode="&#xe90d;" glyph-name="wifi-quality-bars_bars4c-4" d="M22.4 169.587h211.2v-224.026h-211.2v224.026zM278.4 387.213h211.2v-441.651h-211.2v441.651zM534.4 604.813h211.2v-659.251h-211.2v659.251zM790.4 822.413h211.2v-876.851h-211.2v876.851zM187.098 698.227c-18.816 0-34.138-17.216-34.138-38.387v-145.101c0-21.158 15.309-38.387 34.138-38.387h192c18.816 0 34.138 17.216 34.138 38.387v145.114c0 21.158-15.309 38.387-34.138 38.387v36.262c0 52.941-43.059 96-96 96s-96-43.059-96-96v-36.275zM271.245 585.933c-9.139 4.57-14.822 13.683-14.822 23.77 0 14.707 11.968 26.662 26.662 26.662s26.662-11.968 26.662-26.662c0-10.086-5.67-19.2-14.822-23.77l-1.178-0.589v-47.117h-21.338v47.117l-1.165 0.589zM283.098 792.102c31.757 0 57.6-25.843 57.6-57.6v-36.262h-115.2v36.262c0 31.757 25.843 57.6 57.6 57.6z" />
<glyph unicode="&#xe90e;" glyph-name="wifi-quality-bars_bars4d-1" d="M22.4 169.6h211.2v-224h-211.2v224zM278.4-54.4h211.2v441.6h-211.2v-441.6zM310.4 355.2h147.2v-377.6h-147.2v377.6zM745.6 604.826h-211.2v-659.226h211.2v659.226zM713.6-22.4h-147.2v595.226h147.2v-595.226zM1001.6 822.426h-211.2v-876.826h211.2v876.826zM969.6-22.4h-147.2v812.826h147.2v-812.826zM185.6 698.227c-18.829 0-34.125-17.216-34.125-38.387v-145.101c0-21.158 15.296-38.387 34.125-38.387h192c18.829 0 34.125 17.216 34.125 38.387v145.114c0 21.158-15.296 38.387-34.125 38.387v36.262c0 52.941-43.059 96-96 96s-96-43.059-96-96v-36.275zM269.747 585.933c-9.139 4.57-14.822 13.683-14.822 23.77 0 14.707 11.968 26.662 26.675 26.662s26.675-11.968 26.675-26.662c0-10.086-5.683-19.2-14.822-23.77l-1.178-0.589v-47.117h-21.35v47.117l-1.178 0.589zM281.6 792.102c31.757 0 57.6-25.843 57.6-57.6v-36.262h-115.2v36.262c0 31.757 25.843 57.6 57.6 57.6z" />
<glyph unicode="&#xe90f;" glyph-name="wifi-quality-bars_bars4d-2" d="M22.374 169.6h211.2v-224h-211.2v224zM278.4 387.213h211.174v-441.613h-211.174v441.613zM534.374-54.4h211.2v659.213h-211.2v-659.213zM566.374 572.813h147.2v-595.213h-147.2v595.213zM790.374-54.4h211.2v876.813h-211.2v-876.813zM822.374 790.413h147.2v-812.813h-147.2v812.813zM187.2 698.214c-18.829 0-34.125-17.216-34.125-38.387v-145.101c0-21.158 15.296-38.387 34.125-38.387h192c18.829 0 34.125 17.216 34.125 38.387v145.114c0 21.158-15.296 38.387-34.125 38.387v36.262c0 52.941-43.059 96-96 96s-96-43.059-96-96v-36.275zM271.347 585.92c-9.139 4.57-14.822 13.683-14.822 23.77 0 14.707 11.968 26.662 26.675 26.662s26.675-11.968 26.675-26.662c0-10.086-5.683-19.2-14.822-23.77l-1.178-0.589v-47.117h-21.35v47.117l-1.178 0.589zM283.2 792.090c31.757 0 57.6-25.843 57.6-57.6v-36.262h-115.2v36.262c0 31.757 25.843 57.6 57.6 57.6z" />
<glyph unicode="&#xe910;" glyph-name="wifi-quality-bars_bars4d-3" d="M22.413 169.616h211.203v-224.003h-211.203v224.003zM278.416 387.218h211.203v-441.606h-211.203v441.606zM534.419 604.821h211.203v-659.208h-211.203v659.208zM790.423-54.387h211.203v876.811h-211.203v-876.811zM822.423 790.423h147.202v-812.81h-147.202v812.81zM185.615 698.224c-18.829 0-34.125-17.216-34.125-38.388v-145.103c0-21.159 15.296-38.388 34.125-38.388h192.002c18.829 0 34.125 17.216 34.125 38.388v145.115c0 21.159-15.296 38.388-34.125 38.388v36.263c0 52.941-43.060 96.001-96.001 96.001s-96.001-43.060-96.001-96.001v-36.276zM269.763 585.928c-9.139 4.57-14.823 13.683-14.823 23.77 0 14.707 11.968 26.663 26.676 26.663s26.676-11.968 26.676-26.663c0-10.087-5.683-19.2-14.823-23.77l-1.178-0.589v-47.117h-21.351v47.117l-1.178 0.589zM281.616 792.1c31.757 0 57.601-25.844 57.601-57.601v-36.263h-115.201v36.263c0 31.757 25.844 57.601 57.601 57.601z" />
<glyph unicode="&#xe911;" glyph-name="wifi-quality-bars_bars4e-1" d="M22.4 169.6h211.2v-224h-211.2v224zM492.8 703.040c0-10.598 8.602-19.2 19.2-19.2s19.2 8.602 19.2 19.2v92.659c0 52.941-43.059 96-96 96s-96-43.059-96-96v-97.472h-153.6c-18.829 0-34.125-17.216-34.125-38.387v-145.101c0-21.158 15.296-38.387 34.125-38.387h192c18.829 0 34.125 17.216 34.125 38.387v145.114c0 21.158-15.296 38.387-34.125 38.387v97.472c0 31.757 25.843 57.6 57.6 57.6s57.6-25.843 57.6-57.6v-45.581l10.995-30.208-10.995-4.006v-12.877zM269.747 585.933c-9.139 4.57-14.822 13.683-14.822 23.77 0 14.707 11.968 26.662 26.675 26.662s26.675-11.968 26.675-26.662c0-10.086-5.683-19.2-14.822-23.77l-1.178-0.589v-47.117h-21.35v47.117l-1.178 0.589z" />
<glyph unicode="&#xe912;" glyph-name="wifi-quality-bars_bars4e-2" d="M22.387 169.613h211.2v-224h-211.2v224zM278.413 387.226h211.174v-441.613h-211.174v441.613zM390.298 891.699c-52.941 0-96-43.059-96-96v-97.472h-153.6c-18.816 0-34.138-17.216-34.138-38.387v-145.101c0-21.158 15.309-38.387 34.138-38.387h192c18.816 0 34.138 17.216 34.138 38.387v145.114c0 21.158-15.309 38.387-34.138 38.387v97.472c0 31.757 25.843 57.6 57.6 57.6s57.6-25.843 57.6-57.6v-45.581l10.995-30.208-10.995-4.006v-12.877c0-10.598 8.602-19.2 19.2-19.2s19.2 8.602 19.2 19.2v92.659c0 52.941-43.059 96-96 96zM224.845 585.933c-9.139 4.57-14.822 13.683-14.822 23.77 0 14.707 11.968 26.662 26.662 26.662s26.662-11.968 26.662-26.662c0-10.086-5.67-19.2-14.822-23.77l-1.178-0.589v-47.117h-21.338v47.117l-1.165 0.589z" />
<glyph unicode="&#xe913;" glyph-name="wifi-quality-bars_bars4e-3" d="M22.413 169.616h211.203v-223.99h-211.203v223.99zM278.416 387.218h211.203v-441.593h-211.203v441.593zM534.419 604.821h211.203v-659.195h-211.203v659.195zM139.112 698.224c-18.816 0-34.138-17.216-34.138-38.388v-145.103c0-21.159 15.309-38.388 34.138-38.388h192.002c18.816 0 34.138 17.216 34.138 38.388v145.115c0 21.159-15.309 38.388-34.138 38.388v97.473c0 31.757 25.844 57.601 57.601 57.601s57.601-25.844 57.601-57.601v-45.581l10.995-30.208-10.995-4.006v-12.877c0-10.599 8.589-19.2 19.2-19.2s19.2 8.602 19.2 19.2v92.66c0 52.941-43.060 96.001-96.001 96.001s-96.001-43.060-96.001-96.001v-97.473h-153.602zM223.26 585.928c-9.139 4.57-14.823 13.683-14.823 23.77 0 14.707 11.968 26.663 26.663 26.663s26.663-11.968 26.663-26.663c0-10.087-5.67-19.2-14.823-23.77l-1.178-0.589v-47.117h-21.338v47.117l-1.165 0.589z" />
<glyph unicode="&#xe914;" glyph-name="wifi-quality-bars_bars4e-4" d="M22.4 169.587h211.2v-224.026h-211.2v224.026zM278.4 387.213h211.2v-441.651h-211.2v441.651zM534.4 604.813h211.2v-659.251h-211.2v659.251zM790.4 822.413h211.2v-876.851h-211.2v876.851zM444.8 703.040c0-10.598 8.589-19.2 19.2-19.2s19.2 8.602 19.2 19.2v92.659c0 52.941-43.059 96-96 96s-96-43.059-96-96v-97.472h-153.6c-18.816 0-34.138-17.216-34.138-38.387v-145.101c0-21.158 15.309-38.387 34.138-38.387h192c18.816 0 34.138 17.216 34.138 38.387v145.114c0 21.158-15.309 38.387-34.138 38.387v97.472c0 31.757 25.843 57.6 57.6 57.6s57.6-25.843 57.6-57.6v-45.581l10.995-30.208-10.995-4.006v-12.877zM221.747 585.933c-9.139 4.57-14.822 13.683-14.822 23.77 0 14.707 11.968 26.662 26.662 26.662s26.662-11.968 26.662-26.662c0-10.086-5.67-19.2-14.822-23.77l-1.178-0.589v-47.117h-21.338v47.117l-1.165 0.589z" />
<glyph unicode="&#xe915;" glyph-name="wifi-quality-bars_bars4f-1" d="M22.4 169.6h211.2v-224h-211.2v224zM489.6 387.2h-211.2v-441.6h211.2v441.6zM457.6-22.4h-147.2v377.6h147.2v-377.6zM745.6 604.826h-211.2v-659.226h211.2v659.226zM713.6-22.4h-147.2v595.226h147.2v-595.226zM790.4-54.4h211.2v876.826h-211.2v-876.826zM822.4 790.426h147.2v-812.826h-147.2v812.826zM435.2 891.699c-52.941 0-96-43.059-96-96v-97.472h-153.6c-18.816 0-34.138-17.216-34.138-38.387v-145.101c0-21.158 15.309-38.387 34.138-38.387h192c18.816 0 34.138 17.216 34.138 38.387v145.114c0 21.158-15.309 38.387-34.138 38.387v97.472c0 31.757 25.843 57.6 57.6 57.6s57.6-25.843 57.6-57.6v-45.581l10.995-30.208-10.995-4.006v-12.877c0-10.598 8.602-19.2 19.2-19.2s19.2 8.602 19.2 19.2v92.659c0 52.941-43.059 96-96 96zM269.747 585.933c-9.139 4.57-14.822 13.683-14.822 23.77 0 14.707 11.968 26.662 26.662 26.662s26.662-11.968 26.662-26.662c0-10.086-5.67-19.2-14.822-23.77l-1.178-0.589v-47.117h-21.338v47.117l-1.165 0.589z" />
<glyph unicode="&#xe916;" glyph-name="wifi-quality-bars_bars4f-2" d="M22.387 169.613h211.2v-224h-211.2v224zM278.413 387.226h211.174v-441.613h-211.174v441.613zM534.387-54.387h211.2v659.213h-211.2v-659.213zM566.387 572.826h147.2v-595.213h-147.2v595.213zM790.387-54.387h211.2v876.813h-211.2v-876.813zM822.387 790.426h147.2v-812.813h-147.2v812.813zM140.698 476.365h192c18.816 0 34.138 17.216 34.138 38.387v145.101c0 21.158-15.309 38.387-34.138 38.387v97.472c0 31.757 25.843 57.6 57.6 57.6s57.6-25.843 57.6-57.6v-45.581l10.995-30.208-10.995-4.006v-12.877c0-10.598 8.602-19.2 19.2-19.2s19.2 8.602 19.2 19.2v92.659c0 52.941-43.059 96-96 96s-96-43.059-96-96v-97.472h-153.6c-18.816 0-34.138-17.216-34.138-38.387v-145.101c0.013-21.146 15.322-38.374 34.138-38.374zM224.845 585.933c-9.139 4.57-14.822 13.683-14.822 23.77 0 14.707 11.968 26.662 26.662 26.662s26.662-11.968 26.662-26.662c0-10.086-5.67-19.2-14.822-23.77l-1.178-0.589v-47.117h-21.338v47.117l-1.165 0.589z" />
<glyph unicode="&#xe917;" glyph-name="wifi-quality-bars_bars4f-3" d="M22.413 169.616h211.203v-223.99h-211.203v223.99zM278.416 387.218h211.203v-441.593h-211.203v441.593zM534.419 604.821h211.203v-659.195h-211.203v659.195zM790.423-54.374h211.203v876.798h-211.203v-876.798zM822.423 790.423h147.202v-812.797h-147.202v812.797zM446.316 703.037c0-10.599 8.589-19.2 19.2-19.2s19.2 8.602 19.2 19.2v92.66c0 52.941-43.060 96.001-96.001 96.001s-96.001-43.060-96.001-96.001v-97.473h-153.602c-18.829 0-34.125-17.216-34.125-38.388v-145.103c0-21.159 15.296-38.388 34.125-38.388h192.002c18.829 0 34.125 17.216 34.125 38.388v145.115c0 21.159-15.296 38.388-34.125 38.388v97.473c0 31.757 25.844 57.601 57.601 57.601s57.601-25.844 57.601-57.601v-45.581l10.995-30.208-10.995-4.006v-12.877zM223.26 585.928c-9.139 4.57-14.823 13.683-14.823 23.77 0 14.707 11.968 26.663 26.676 26.663s26.676-11.968 26.676-26.663c0-10.087-5.683-19.2-14.823-23.77l-1.178-0.589v-47.117h-21.351v47.117l-1.178 0.589z" />
<glyph unicode="&#xe918;" glyph-name="wifi-quality-bars_bars4g-1" d="M22.4 169.613h211.2v-224h-211.2v224zM277.056 476.8c0 0 141.581 39.974 147.418 114.534 5.709 74.547 15.014 192.845 15.053 193.114-0.013 0-3.866-1.587-14.029-1.587-12.915 0-36.006 2.547-74.406 14.106-68.595 20.506-74.022 38.234-74.022 38.234s-5.427-17.728-74.022-38.234c-38.4-11.546-61.504-14.106-74.406-14.106-10.163 0-14.003 1.587-14.016 1.587 0.051-0.269 9.331-118.566 15.066-193.114 5.786-74.56 147.366-114.534 147.366-114.534zM277.056 706.317c16.269 0 29.35-13.12 29.35-29.402 0-12.006-7.13-22.298-17.626-26.854v-52.774h-23.795v52.915c-10.15 4.659-17.28 14.81-17.28 26.701 0 16.282 13.069 29.414 29.35 29.414z" />
<glyph unicode="&#xe919;" glyph-name="wifi-quality-bars_bars4g-2" d="M22.4 169.613h211.2v-224h-211.2v224zM278.413 387.226h211.187v-441.613h-211.187v441.613zM277.056 476.8c0 0 141.581 39.974 147.418 114.534 5.709 74.547 15.014 192.845 15.053 193.114-0.013 0-3.866-1.587-14.029-1.587-12.915 0-36.006 2.547-74.406 14.106-68.595 20.518-74.022 38.234-74.022 38.234s-5.427-17.728-74.022-38.234c-38.4-11.546-61.504-14.106-74.406-14.106-10.163 0-14.003 1.587-14.016 1.587 0.051-0.269 9.331-118.566 15.066-193.114 5.786-74.56 147.366-114.534 147.366-114.534zM277.056 706.317c16.269 0 29.35-13.12 29.35-29.402 0-12.006-7.13-22.298-17.626-26.854v-52.774h-23.795v52.915c-10.15 4.659-17.28 14.81-17.28 26.714 0 16.269 13.069 29.402 29.35 29.402z" />
<glyph unicode="&#xe91a;" glyph-name="wifi-quality-bars_bars4g-3" d="M22.4 169.613h211.2v-224h-211.2v224zM278.413 387.226h211.187v-441.613h-211.187v441.613zM534.4 604.813h211.2v-659.2h-211.2v659.2zM277.056 476.8c0 0 141.581 39.974 147.418 114.534 5.709 74.547 15.014 192.845 15.053 193.114-0.013 0-3.866-1.587-14.029-1.587-12.915 0-36.006 2.547-74.406 14.106-68.595 20.518-74.022 38.234-74.022 38.234s-5.427-17.728-74.022-38.234c-38.4-11.546-61.504-14.106-74.406-14.106-10.163 0-14.003 1.587-14.016 1.587 0.051-0.269 9.331-118.566 15.066-193.114 5.786-74.56 147.366-114.534 147.366-114.534zM277.056 706.317c16.269 0 29.35-13.12 29.35-29.402 0-12.006-7.13-22.298-17.626-26.854v-52.774h-23.795v52.915c-10.15 4.659-17.28 14.81-17.28 26.714 0 16.269 13.069 29.402 29.35 29.402z" />
<glyph unicode="&#xe91b;" glyph-name="wifi-quality-bars_bars4g-4" d="M22.4 169.613h211.2v-224h-211.2v224zM278.413 387.226h211.187v-441.613h-211.187v441.613zM534.4 604.813h211.2v-659.2h-211.2v659.2zM790.4 822.413h211.2v-876.8h-211.2v876.8zM277.056 476.8c0 0 141.581 39.974 147.418 114.534 5.709 74.547 15.014 192.845 15.053 193.114-0.013 0-3.866-1.587-14.029-1.587-12.915 0-36.006 2.547-74.406 14.106-68.595 20.518-74.022 38.234-74.022 38.234s-5.427-17.728-74.022-38.234c-38.4-11.546-61.504-14.106-74.406-14.106-10.163 0-14.003 1.587-14.016 1.587 0.051-0.269 9.331-118.566 15.066-193.114 5.786-74.56 147.366-114.534 147.366-114.534zM277.056 706.317c16.269 0 29.35-13.12 29.35-29.402 0-12.006-7.13-22.298-17.626-26.854v-52.774h-23.795v52.915c-10.15 4.659-17.28 14.81-17.28 26.714 0 16.269 13.069 29.402 29.35 29.402z" />
<glyph unicode="&#xe91c;" glyph-name="wifi-quality-bars_bars4h-1" d="M22.4 169.613h211.2v-224h-211.2v224zM489.6 387.226h-211.187v-441.613h211.187v441.613zM457.6-22.387h-147.187v377.613h147.187v-377.613zM745.6 604.813h-211.2v-659.2h211.2v659.2zM713.6-22.387h-147.2v595.2h147.2v-595.2zM790.4-54.387h211.2v876.8h-211.2v-876.8zM822.4 790.413h147.2v-812.8h-147.2v812.8zM277.056 476.8c0 0 141.581 39.974 147.418 114.534 5.709 74.547 15.014 192.845 15.053 193.114-0.013 0-3.866-1.587-14.029-1.587-12.915 0-36.006 2.547-74.406 14.106-68.595 20.506-74.022 38.234-74.022 38.234s-5.427-17.728-74.022-38.234c-38.4-11.546-61.504-14.106-74.406-14.106-10.163 0-14.003 1.587-14.016 1.587 0.051-0.269 9.331-118.566 15.066-193.114 5.786-74.56 147.366-114.534 147.366-114.534zM277.056 706.317c16.269 0 29.35-13.12 29.35-29.402 0-12.006-7.13-22.298-17.626-26.854v-52.774h-23.795v52.915c-10.15 4.659-17.28 14.81-17.28 26.701 0 16.282 13.069 29.414 29.35 29.414z" />
<glyph unicode="&#xe91d;" glyph-name="wifi-quality-bars_bars4h-2" d="M22.4 169.613h211.2v-224h-211.2v224zM278.413 387.226h211.187v-441.613h-211.187v441.613zM745.6 604.813h-211.2v-659.2h211.2v659.2zM713.6-22.387h-147.2v595.2h147.2v-595.2zM1001.6 822.413h-211.2v-876.8h211.2v876.8zM969.6-22.387h-147.2v812.8h147.2v-812.8zM277.056 476.8c0 0 141.581 39.974 147.418 114.534 5.709 74.547 15.014 192.845 15.053 193.114-0.013 0-3.866-1.587-14.029-1.587-12.915 0-36.006 2.547-74.406 14.106-68.595 20.518-74.022 38.234-74.022 38.234s-5.427-17.728-74.022-38.234c-38.4-11.546-61.504-14.106-74.406-14.106-10.163 0-14.003 1.587-14.016 1.587 0.051-0.269 9.331-118.566 15.066-193.114 5.786-74.56 147.366-114.534 147.366-114.534zM277.056 706.317c16.269 0 29.35-13.12 29.35-29.402 0-12.006-7.13-22.298-17.626-26.854v-52.774h-23.795v52.915c-10.15 4.659-17.28 14.81-17.28 26.714 0 16.269 13.069 29.402 29.35 29.402z" />
<glyph unicode="&#xe91e;" glyph-name="wifi-quality-bars_bars4h-3" d="M22.4 169.613h211.2v-224h-211.2v224zM278.413 387.226h211.187v-441.613h-211.187v441.613zM534.4 604.813h211.2v-659.2h-211.2v659.2zM790.4-54.387h211.2v876.8h-211.2v-876.8zM822.4 790.413h147.2v-812.8h-147.2v812.8zM277.056 476.8c0 0 141.581 39.974 147.418 114.534 5.709 74.547 15.014 192.845 15.053 193.114-0.013 0-3.866-1.587-14.029-1.587-12.915 0-36.006 2.547-74.406 14.106-68.595 20.518-74.022 38.234-74.022 38.234s-5.427-17.728-74.022-38.234c-38.4-11.546-61.504-14.106-74.406-14.106-10.163 0-14.003 1.587-14.016 1.587 0.051-0.269 9.331-118.566 15.066-193.114 5.786-74.56 147.366-114.534 147.366-114.534zM277.056 706.317c16.269 0 29.35-13.12 29.35-29.402 0-12.006-7.13-22.298-17.626-26.854v-52.774h-23.795v52.915c-10.15 4.659-17.28 14.81-17.28 26.714 0 16.269 13.069 29.402 29.35 29.402z" />
<glyph unicode="&#xe91f;" glyph-name="wifi-quality-bars_bars5a-1" d="M24 116.736h156.8v-169.6h-156.8v169.6z" />
<glyph unicode="&#xe920;" glyph-name="wifi-quality-bars_bars5a-2" d="M24 116.8h156.8v-169.6h-156.8v169.6zM228.8 284.8h160v-339.2h-160v339.2z" />
<glyph unicode="&#xe921;" glyph-name="wifi-quality-bars_bars5a-3" d="M22.4 118.4h160v-172.8h-160v172.8zM433.6 451.2h160v-505.6h-160v505.6zM228.8 284.8h160v-339.2h-160v339.2z" />
<glyph unicode="&#xe922;" glyph-name="wifi-quality-bars_bars5a-4" d="M23.987 116.8h156.8v-169.6h-156.8v169.6zM433.587 451.2h160v-505.6h-160v505.6zM638.387 617.6h160v-672h-160v672zM228.787 284.8h160v-339.2h-160v339.2z" />
<glyph unicode="&#xe923;" glyph-name="wifi-quality-bars_bars5a-5" d="M24 116.8h156.8v-169.6h-156.8v169.6zM433.6 451.2h160v-505.6h-160v505.6zM638.4 617.6h160v-672h-160v672zM841.6 784h160v-838.4h-160v838.4zM228.8 284.8h160v-339.2h-160v339.2z" />
<glyph unicode="&#xe924;" glyph-name="wifi-quality-bars_bars5b-1" d="M24 116.736h156.8v-169.6h-156.8v169.6zM433.6-54.464h160v505.638h-160v-505.638zM465.6 419.174h96v-441.638h-96v441.638zM638.4-54.464h160v672.064h-160v-672.064zM670.4 585.6h96v-608.064h-96v608.064zM841.6-54.464h160v838.464h-160v-838.464zM873.6 752h96v-774.464h-96v774.464zM388.8 284.762h-160v-339.226h160v339.226zM356.8-22.464h-96v275.226h96v-275.226z" />
<glyph unicode="&#xe925;" glyph-name="wifi-quality-bars_bars5b-2" d="M22.4 118.4h160v-172.8h-160v172.8zM433.6-54.4h160v505.6h-160v-505.6zM465.6 419.2h96v-441.6h-96v441.6zM798.374 617.6h-160v-672h160v672zM766.374-22.4h-96v608h96v-608zM1001.574 784h-160v-838.4h160v838.4zM969.574-22.4h-96v774.4h96v-774.4zM228.8 284.8h160v-339.2h-160v339.2z" />
<glyph unicode="&#xe926;" glyph-name="wifi-quality-bars_bars5b-3" d="M22.4 118.4h160v-172.8h-160v172.8zM433.6 451.2h160v-505.6h-160v505.6zM798.4 617.6h-160v-672h160v672zM766.4-22.4h-96v608h96v-608zM1001.6-54.4v838.4h-160v-838.4h160zM873.6 752h96v-774.4h-96v774.4zM228.8 284.8h160v-339.2h-160v339.2z" />
<glyph unicode="&#xe927;" glyph-name="wifi-quality-bars_bars5b-4" d="M23.987 116.8h156.8v-169.6h-156.8v169.6zM433.587 451.2h160v-505.6h-160v505.6zM638.387 617.6h160v-672h-160v672zM1001.587 784h-160v-838.4h160v838.4zM969.587-22.4h-96v774.4h96v-774.4zM228.787 284.8h160v-339.2h-160v339.2z" />
<glyph unicode="&#xe928;" glyph-name="wifi-quality-bars_bars5c-1" d="M23.974 116.8h156.8v-169.6h-156.8v169.6zM147.174 412.378h192c18.816 0 34.138 17.216 34.138 38.374v145.101c0 21.158-15.309 38.374-34.138 38.374v36.275c0 52.941-43.059 96-96 96s-96-43.059-96-96v-36.275c-18.816 0-34.138-17.216-34.138-38.374v-145.101c0.013-21.158 15.322-38.374 34.138-38.374zM231.322 521.92c-9.139 4.57-14.822 13.683-14.822 23.77 0 14.707 11.968 26.675 26.662 26.675s26.662-11.968 26.662-26.675c0-10.086-5.67-19.2-14.822-23.77l-1.178-0.589v-47.117h-21.338v47.117l-1.165 0.589zM185.574 670.502c0 31.757 25.843 57.6 57.6 57.6s57.6-25.843 57.6-57.6v-36.275h-115.2v36.275z" />
<glyph unicode="&#xe929;" glyph-name="wifi-quality-bars_bars5c-2" d="M22.4 118.387h160v-172.8h-160v172.8zM228.8 284.8h160v-339.213h-160v339.213zM373.325 450.752v145.101c0 21.158-15.296 38.374-34.125 38.374v36.275c0 52.941-43.059 96-96 96s-96-43.059-96-96v-36.275c-18.829 0-34.125-17.216-34.125-38.374v-145.101c0-21.158 15.296-38.374 34.125-38.374h192c18.829 0 34.125 17.216 34.125 38.374zM231.347 521.92c-9.139 4.57-14.822 13.683-14.822 23.77 0 14.707 11.968 26.675 26.675 26.675s26.675-11.968 26.675-26.675c0-10.086-5.683-19.2-14.822-23.77l-1.178-0.589v-47.117h-21.35v47.117l-1.178 0.589zM185.6 670.502c0 31.757 25.843 57.6 57.6 57.6s57.6-25.843 57.6-57.6v-36.275h-115.2v36.275z" />
<glyph unicode="&#xe92a;" glyph-name="wifi-quality-bars_bars5c-3" d="M22.4 118.4h160v-172.8h-160v172.8zM433.613 451.2h160v-505.6h-160v505.6zM228.813 284.8h160v-339.2h-160v339.2zM148.787 670.502v-36.275c-18.829 0-34.125-17.216-34.125-38.374v-145.101c0-21.158 15.296-38.374 34.125-38.374h192c18.829 0 34.125 17.216 34.125 38.374v145.101c0 21.158-15.296 38.374-34.125 38.374v36.275c0 52.941-43.059 96-96 96s-96-43.059-96-96zM232.934 521.92c-9.139 4.57-14.822 13.683-14.822 23.77 0 14.707 11.968 26.675 26.675 26.675s26.675-11.968 26.675-26.675c0-10.086-5.683-19.2-14.822-23.77l-1.178-0.589v-47.117h-21.35v47.117l-1.178 0.589zM244.787 728.102c31.757 0 57.6-25.843 57.6-57.6v-36.275h-115.2v36.275c0 31.757 25.843 57.6 57.6 57.6z" />
<glyph unicode="&#xe92b;" glyph-name="wifi-quality-bars_bars5c-4" d="M23.987 116.813h156.8v-169.613h-156.8v169.613zM433.587 451.2h160v-505.6h-160v505.6zM638.387 617.6h160v-672h-160v672zM228.787 284.8h160v-339.2h-160v339.2zM145.6 673.421v-36.275c-18.829 0-34.125-17.216-34.125-38.374v-145.101c0-21.158 15.296-38.374 34.125-38.374h192c18.829 0 34.125 17.216 34.125 38.374v145.101c0 21.158-15.296 38.374-34.125 38.374v36.275c0 52.941-43.059 96-96 96s-96-43.059-96-96zM229.747 524.851c-9.139 4.57-14.822 13.683-14.822 23.77 0 14.707 11.968 26.675 26.675 26.675s26.675-11.968 26.675-26.675c0-10.086-5.683-19.2-14.822-23.77l-1.178-0.589v-47.117h-21.35v47.117l-1.178 0.589zM241.6 731.021c31.757 0 57.6-25.843 57.6-57.6v-36.275h-115.2v36.275c0 31.77 25.843 57.6 57.6 57.6z" />
<glyph unicode="&#xe92c;" glyph-name="wifi-quality-bars_bars5c-5" d="M24 116.8h156.8v-169.6h-156.8v169.6zM433.6 451.2h160v-505.6h-160v505.6zM638.4 617.6h160v-672h-160v672zM841.6 784h160v-838.4h-160v838.4zM228.8 284.8h160v-339.2h-160v339.2zM148.8 673.421v-36.275c-18.829 0-34.125-17.216-34.125-38.374v-145.101c0-21.158 15.296-38.374 34.125-38.374h192c18.829 0 34.125 17.216 34.125 38.374v145.101c0 21.158-15.296 38.374-34.125 38.374v36.275c0 52.941-43.059 96-96 96s-96-43.059-96-96zM232.947 524.851c-9.139 4.57-14.822 13.683-14.822 23.77 0 14.707 11.968 26.675 26.675 26.675s26.675-11.968 26.675-26.675c0-10.086-5.683-19.2-14.822-23.77l-1.178-0.589v-47.117h-21.35v47.117l-1.178 0.589zM244.8 731.021c31.757 0 57.6-25.843 57.6-57.6v-36.275h-115.2v36.275c0 31.77 25.843 57.6 57.6 57.6z" />
<glyph unicode="&#xe92d;" glyph-name="wifi-quality-bars_bars5d-1" d="M24 116.8h156.8v-169.6h-156.8v169.6zM433.6-54.4h160v505.6h-160v-505.6zM465.6 419.2h96v-441.6h-96v441.6zM638.4-54.4h160v672h-160v-672zM670.4 585.6h96v-608h-96v608zM841.6-54.4h160v838.4h-160v-838.4zM873.6 752h96v-774.4h-96v774.4zM228.8-54.4h160v339.2h-160v-339.2zM260.8 252.8h96v-275.2h-96v275.2zM147.2 670.502v-36.275c-18.816 0-34.138-17.216-34.138-38.374v-145.101c0-21.158 15.309-38.374 34.138-38.374h192c18.816 0 34.138 17.216 34.138 38.374v145.101c0 21.158-15.309 38.374-34.138 38.374v36.275c0 52.941-43.059 96-96 96s-96-43.059-96-96zM231.347 521.92c-9.139 4.57-14.822 13.683-14.822 23.77 0 14.707 11.968 26.675 26.662 26.675s26.662-11.968 26.662-26.675c0-10.086-5.67-19.2-14.822-23.77l-1.178-0.589v-47.117h-21.338v47.117l-1.165 0.589zM243.2 728.102c31.757 0 57.6-25.843 57.6-57.6v-36.275h-115.2v36.275c0 31.757 25.843 57.6 57.6 57.6z" />
<glyph unicode="&#xe92e;" glyph-name="wifi-quality-bars_bars5d-2" d="M22.4 118.387h160v-172.8h-160v172.8zM433.6-54.413h160v505.613h-160v-505.613zM465.6 419.2h96v-441.613h-96v441.613zM798.374 617.6h-160v-672.013h160v672.013zM766.374-22.413h-96v608.013h96v-608.013zM841.574-54.413h160v838.413h-160v-838.413zM873.574 752h96v-774.413h-96v774.413zM228.8 284.8h160v-339.213h-160v339.213zM147.2 670.502v-36.275c-18.816 0-34.138-17.216-34.138-38.374v-145.101c0-21.158 15.309-38.374 34.138-38.374h192c18.816 0 34.138 17.216 34.138 38.374v145.101c0 21.158-15.309 38.374-34.138 38.374v36.275c0 52.941-43.059 96-96 96s-96-43.059-96-96zM231.347 521.92c-9.139 4.57-14.822 13.683-14.822 23.77 0 14.707 11.968 26.675 26.662 26.675s26.662-11.968 26.662-26.675c0-10.086-5.67-19.2-14.822-23.77l-1.178-0.589v-47.117h-21.338v47.117l-1.165 0.589zM243.2 728.102c31.757 0 57.6-25.843 57.6-57.6v-36.275h-115.2v36.275c0 31.757 25.843 57.6 57.6 57.6z" />
<glyph unicode="&#xe92f;" glyph-name="wifi-quality-bars_bars5d-3" d="M24 116.8h156.8v-169.6h-156.8v169.6zM433.613 451.2h160v-505.6h-160v505.6zM638.413-54.4h160v672h-160v-672zM670.413 585.6h96v-608h-96v608zM841.613-54.4h159.987v838.4h-159.987v-838.4zM873.613 752h95.987v-774.4h-95.987v774.4zM228.813 284.8h160v-339.2h-160v339.2zM148.787 670.502v-36.275c-18.816 0-34.138-17.216-34.138-38.374v-145.101c0-21.158 15.309-38.374 34.138-38.374h192c18.816 0 34.138 17.216 34.138 38.374v145.101c0 21.158-15.309 38.374-34.138 38.374v36.275c0 52.941-43.059 96-96 96s-96-43.059-96-96zM232.934 521.92c-9.139 4.57-14.822 13.683-14.822 23.77 0 14.707 11.968 26.675 26.662 26.675s26.662-11.968 26.662-26.675c0-10.086-5.67-19.2-14.822-23.77l-1.178-0.589v-47.117h-21.338v47.117l-1.165 0.589zM244.787 728.102c31.757 0 57.6-25.843 57.6-57.6v-36.275h-115.2v36.275c0 31.757 25.843 57.6 57.6 57.6z" />
<glyph unicode="&#xe930;" glyph-name="wifi-quality-bars_bars5d-4" d="M23.987 116.813h156.8v-169.613h-156.8v169.613zM433.587 451.2h160v-505.6h-160v505.6zM638.387 617.6h160v-672h-160v672zM841.587-54.4h160v838.4h-160v-838.4zM873.587 752h96v-774.4h-96v774.4zM228.787 284.8h160v-339.2h-160v339.2zM145.6 673.421v-36.275c-18.816 0-34.138-17.216-34.138-38.374v-145.101c0-21.158 15.309-38.374 34.138-38.374h192c18.816 0 34.138 17.216 34.138 38.374v145.101c0 21.158-15.309 38.374-34.138 38.374v36.275c0 52.941-43.059 96-96 96s-96-43.059-96-96zM229.747 524.851c-9.139 4.57-14.822 13.683-14.822 23.77 0 14.707 11.968 26.675 26.662 26.675s26.662-11.968 26.662-26.675c0-10.086-5.67-19.2-14.822-23.77l-1.178-0.589v-47.117h-21.338v47.117l-1.165 0.589zM241.6 731.021c31.757 0 57.6-25.843 57.6-57.6v-36.275h-115.2v36.275c0 31.77 25.843 57.6 57.6 57.6z" />
<glyph unicode="&#xe931;" glyph-name="wifi-quality-bars_bars5e-1" d="M24 116.8h156.8v-169.6h-156.8v169.6zM396.8 830.63c-52.941 0-96-43.059-96-96v-97.472h-153.6c-18.816 0-34.138-17.216-34.138-38.374v-145.101c0-21.158 15.309-38.374 34.138-38.374h192c18.816 0 34.138 17.216 34.138 38.374v145.088c0 21.158-15.309 38.374-34.138 38.374v97.472c0 31.757 25.843 57.6 57.6 57.6s57.6-25.843 57.6-57.6v-45.581l10.995-30.208-10.995-3.994v-12.877c0-10.598 8.602-19.2 19.2-19.2s19.2 8.602 19.2 19.2v92.659c0 52.941-43.059 96.013-96 96.013zM231.347 524.851c-9.139 4.57-14.822 13.683-14.822 23.77 0 14.707 11.968 26.675 26.662 26.675s26.662-11.968 26.662-26.675c0-10.086-5.67-19.2-14.822-23.77l-1.178-0.589v-47.117h-21.338v47.117l-1.165 0.589z" />
<glyph unicode="&#xe932;" glyph-name="wifi-quality-bars_bars5e-2" d="M22.4 118.4h160v-172.8h-160v172.8zM228.8 284.8h160v-339.2h-160v339.2zM401.6 830.63c-52.941 0-96-43.059-96-96v-97.472h-153.6c-18.829 0-34.125-17.216-34.125-38.374v-145.101c0-21.158 15.296-38.374 34.125-38.374h192c18.829 0 34.125 17.216 34.125 38.374v145.088c0 21.158-15.296 38.374-34.125 38.374v97.472c0 31.757 25.843 57.6 57.6 57.6s57.6-25.843 57.6-57.6v-45.581l10.995-30.208-10.995-4.006v-12.877c0-10.598 8.602-19.2 19.2-19.2s19.2 8.602 19.2 19.2v92.659c0 52.954-43.059 96.026-96 96.026zM236.147 524.851c-9.139 4.57-14.822 13.683-14.822 23.77 0 14.707 11.968 26.675 26.675 26.675s26.675-11.968 26.675-26.675c0-10.086-5.683-19.2-14.822-23.77l-1.178-0.589v-47.117h-21.35v47.117l-1.178 0.589z" />
<glyph unicode="&#xe933;" glyph-name="wifi-quality-bars_bars5e-3" d="M24 116.8h156.8v-169.6h-156.8v169.6zM433.613 451.2h160v-505.6h-160v505.6zM228.813 284.8h160v-339.2h-160v339.2zM452.8 634.138c0-10.598 8.602-19.2 19.2-19.2s19.2 8.602 19.2 19.2v92.659c0 52.941-43.059 96-96 96s-96-43.059-96-96v-97.472h-153.6c-18.829 0-34.125-17.216-34.125-38.374v-145.101c0-21.158 15.296-38.374 34.125-38.374h192c18.829 0 34.125 17.216 34.125 38.374v145.101c0 21.158-15.296 38.374-34.125 38.374v97.472c0 31.757 25.843 57.6 57.6 57.6s57.6-25.843 57.6-57.6v-45.581l10.995-30.208-10.995-4.006v-12.864zM229.747 517.030c-9.139 4.57-14.822 13.683-14.822 23.77 0 14.707 11.968 26.675 26.675 26.675s26.675-11.968 26.675-26.675c0-10.086-5.683-19.2-14.822-23.77l-1.178-0.589v-47.117h-21.35v47.117l-1.178 0.589z" />
<glyph unicode="&#xe934;" glyph-name="wifi-quality-bars_bars5e-4" d="M24 116.8h156.8v-169.6h-156.8v169.6zM433.6 451.2h160v-505.6h-160v505.6zM638.4 617.6h160v-672h-160v672zM228.8 284.8h160v-339.2h-160v339.2zM456 634.138c0-10.598 8.602-19.2 19.2-19.2s19.2 8.602 19.2 19.2v92.659c0 52.941-43.059 96-96 96s-96-43.059-96-96v-97.472h-153.6c-18.829 0-34.125-17.216-34.125-38.374v-145.101c0-21.158 15.296-38.374 34.125-38.374h192c18.829 0 34.125 17.216 34.125 38.374v145.101c0 21.158-15.296 38.374-34.125 38.374v97.472c0 31.757 25.843 57.6 57.6 57.6s57.6-25.843 57.6-57.6v-45.581l10.995-30.208-10.995-4.006v-12.864zM232.947 517.030c-9.139 4.57-14.822 13.683-14.822 23.77 0 14.707 11.968 26.675 26.675 26.675s26.675-11.968 26.675-26.675c0-10.086-5.683-19.2-14.822-23.77l-1.178-0.589v-47.117h-21.35v47.117l-1.178 0.589z" />
<glyph unicode="&#xe935;" glyph-name="wifi-quality-bars_bars5e-5" d="M24 116.8h156.8v-169.6h-156.8v169.6zM433.6 451.2h160v-505.6h-160v505.6zM638.4 617.6h160v-672h-160v672zM841.6 784h160v-838.4h-160v838.4zM228.8 284.8h160v-339.2h-160v339.2zM454.4 634.138c0-10.598 8.602-19.2 19.2-19.2s19.2 8.602 19.2 19.2v92.659c0 52.941-43.059 96-96 96s-96-43.059-96-96v-97.472h-153.6c-18.829 0-34.125-17.216-34.125-38.374v-145.101c0-21.158 15.296-38.374 34.125-38.374h192c18.829 0 34.125 17.216 34.125 38.374v145.101c0 21.158-15.296 38.374-34.125 38.374v97.472c0 31.757 25.843 57.6 57.6 57.6s57.6-25.843 57.6-57.6v-45.581l10.995-30.208-10.995-3.994v-12.877zM231.347 517.030c-9.139 4.57-14.822 13.683-14.822 23.77 0 14.707 11.968 26.675 26.675 26.675s26.675-11.968 26.675-26.675c0-10.086-5.683-19.2-14.822-23.77l-1.178-0.589v-47.117h-21.35v47.117l-1.178 0.589z" />
<glyph unicode="&#xe936;" glyph-name="wifi-quality-bars_bars5f-1" d="M24 116.8h156.8v-169.6h-156.8v169.6zM433.6-54.4h160v505.6h-160v-505.6zM465.6 419.2h96v-441.6h-96v441.6zM638.4-54.4h160v672h-160v-672zM670.4 585.6h96v-608h-96v608zM841.6-54.4h160v838.4h-160v-838.4zM873.6 752h96v-774.4h-96v774.4zM228.8-54.4h160v339.2h-160v-339.2zM260.8 252.8h96v-275.2h-96v275.2zM454.4 641.958c0-10.598 8.602-19.2 19.2-19.2s19.2 8.602 19.2 19.2v92.659c0 52.941-43.059 96-96 96s-96-43.059-96-96v-97.472h-153.6c-18.816 0-34.138-17.216-34.138-38.374v-145.101c0-21.158 15.309-38.374 34.138-38.374h192c18.816 0 34.138 17.216 34.138 38.374v145.101c0 21.158-15.309 38.374-34.138 38.374v97.472c0 31.757 25.843 57.6 57.6 57.6s57.6-25.843 57.6-57.6v-45.581l10.995-30.208-10.995-3.994v-12.877zM231.347 524.851c-9.139 4.57-14.822 13.683-14.822 23.77 0 14.707 11.968 26.675 26.662 26.675s26.662-11.968 26.662-26.675c0-10.086-5.67-19.2-14.822-23.77l-1.178-0.589v-47.117h-21.338v47.117l-1.165 0.589z" />
<glyph unicode="&#xe937;" glyph-name="wifi-quality-bars_bars5f-2" d="M22.4 118.4h160v-172.8h-160v172.8zM433.6-54.4h160v505.6h-160v-505.6zM465.6 419.2h96v-441.6h-96v441.6zM798.374 617.6h-160v-672h160v672zM766.374-22.4h-96v608h96v-608zM841.574-54.4h160v838.4h-160v-838.4zM873.574 752h96v-774.4h-96v774.4zM228.8 284.8h160v-339.2h-160v339.2zM459.2 641.958c0-10.598 8.602-19.2 19.2-19.2s19.2 8.602 19.2 19.2v92.659c0 52.941-43.059 96-96 96s-96-43.059-96-96v-97.472h-153.6c-18.816 0-34.138-17.216-34.138-38.374v-145.101c0-21.158 15.309-38.374 34.138-38.374h192c18.816 0 34.138 17.216 34.138 38.374v145.101c0 21.158-15.309 38.374-34.138 38.374v97.472c0 31.757 25.843 57.6 57.6 57.6s57.6-25.843 57.6-57.6v-45.581l10.995-30.208-10.995-4.006v-12.864zM236.147 524.851c-9.139 4.57-14.822 13.683-14.822 23.77 0 14.707 11.968 26.675 26.662 26.675s26.662-11.968 26.662-26.675c0-10.086-5.67-19.2-14.822-23.77l-1.178-0.589v-47.117h-21.338v47.117l-1.165 0.589z" />
<glyph unicode="&#xe938;" glyph-name="wifi-quality-bars_bars5f-3" d="M24 116.8h156.8v-169.6h-156.8v169.6zM433.613 451.2h160v-505.6h-160v505.6zM638.413-54.4h160v672h-160v-672zM670.413 585.6h96v-608h-96v608zM841.613-54.4h159.987v838.4h-159.987v-838.4zM873.613 752h95.987v-774.4h-95.987v774.4zM228.813 284.8h160v-339.2h-160v339.2zM452.8 634.138c0-10.598 8.602-19.2 19.2-19.2s19.2 8.602 19.2 19.2v92.659c0 52.941-43.059 96-96 96s-96-43.059-96-96v-97.472h-153.6c-18.816 0-34.138-17.216-34.138-38.374v-145.101c0-21.158 15.309-38.374 34.138-38.374h192c18.816 0 34.138 17.216 34.138 38.374v145.101c0 21.158-15.309 38.374-34.138 38.374v97.472c0 31.757 25.843 57.6 57.6 57.6s57.6-25.843 57.6-57.6v-45.581l10.995-30.208-10.995-4.006v-12.864zM229.747 517.030c-9.139 4.57-14.822 13.683-14.822 23.77 0 14.707 11.968 26.675 26.662 26.675s26.662-11.968 26.662-26.675c0-10.086-5.67-19.2-14.822-23.77l-1.178-0.589v-47.117h-21.338v47.117l-1.165 0.589z" />
<glyph unicode="&#xe939;" glyph-name="wifi-quality-bars_bars5f-4" d="M24 116.8h156.8v-169.6h-156.8v169.6zM433.6 451.2h160v-505.6h-160v505.6zM638.4 617.6h160v-672h-160v672zM841.6-54.4h160v838.4h-160v-838.4zM873.6 752h96v-774.4h-96v774.4zM228.8 284.8h160v-339.2h-160v339.2zM456 634.138c0-10.598 8.602-19.2 19.2-19.2s19.2 8.602 19.2 19.2v92.659c0 52.941-43.059 96-96 96s-96-43.059-96-96v-97.472h-153.6c-18.816 0-34.138-17.216-34.138-38.374v-145.101c0-21.158 15.309-38.374 34.138-38.374h192c18.816 0 34.138 17.216 34.138 38.374v145.101c0 21.158-15.309 38.374-34.138 38.374v97.472c0 31.757 25.843 57.6 57.6 57.6s57.6-25.843 57.6-57.6v-45.581l10.995-30.208-10.995-4.006v-12.864zM232.947 517.030c-9.139 4.57-14.822 13.683-14.822 23.77 0 14.707 11.968 26.675 26.662 26.675s26.662-11.968 26.662-26.675c0-10.086-5.67-19.2-14.822-23.77l-1.178-0.589v-47.117h-21.338v47.117l-1.165 0.589z" />
<glyph unicode="&#xe93a;" glyph-name="wifi-quality-bars_bars5g-1" d="M24 116.8h156.8v-169.6h-156.8v169.6zM326.272 796.429c-68.595 20.506-74.022 38.234-74.022 38.234s-5.427-17.741-74.022-38.234c-38.4-11.546-61.504-14.106-74.406-14.106-10.163 0-14.003 1.587-14.016 1.587 0.051-0.269 9.331-118.566 15.066-193.114 5.811-74.56 147.392-114.534 147.392-114.534s141.581 39.974 147.418 114.534c5.709 74.547 15.014 192.845 15.053 193.114-0.013 0-3.866-1.587-14.029-1.587-12.928 0-36.032 2.547-74.432 14.106zM222.899 676.378c0 16.269 13.069 29.402 29.35 29.402s29.35-13.133 29.35-29.402c0-12.006-7.13-22.298-17.626-26.854v-52.774h-23.795v52.928c-10.15 4.646-17.28 14.797-17.28 26.701z" />
<glyph unicode="&#xe93b;" glyph-name="wifi-quality-bars_bars5g-2" d="M22.4 118.4h160v-172.8h-160v172.8zM228.8 284.8h160v-339.2h-160v339.2zM326.272 796.429c-68.595 20.506-74.022 38.234-74.022 38.234s-5.427-17.741-74.022-38.234c-38.4-11.546-61.504-14.106-74.406-14.106-10.163 0-14.003 1.587-14.016 1.587 0.051-0.269 9.331-118.566 15.066-193.114 5.811-74.56 147.392-114.534 147.392-114.534s141.581 39.974 147.418 114.534c5.709 74.547 15.014 192.845 15.053 193.114-0.013 0-3.866-1.587-14.029-1.587-12.928 0-36.032 2.547-74.432 14.106zM222.899 676.378c0 16.269 13.069 29.402 29.35 29.402s29.35-13.133 29.35-29.402c0-12.006-7.13-22.298-17.626-26.854v-52.774h-23.795v52.928c-10.15 4.646-17.28 14.797-17.28 26.701z" />
<glyph unicode="&#xe93c;" glyph-name="wifi-quality-bars_bars5g-3" d="M24 116.8h156.8v-169.6h-156.8v169.6zM433.6 451.2h160v-505.6h-160v505.6zM228.8 284.8h160v-339.2h-160v339.2zM326.272 796.429c-68.595 20.506-74.022 38.234-74.022 38.234s-5.427-17.741-74.022-38.234c-38.4-11.546-61.504-14.106-74.406-14.106-10.163 0-14.003 1.587-14.016 1.587 0.051-0.269 9.331-118.566 15.066-193.114 5.811-74.56 147.392-114.534 147.392-114.534s141.581 39.974 147.418 114.534c5.709 74.547 15.014 192.845 15.053 193.114-0.013 0-3.866-1.587-14.029-1.587-12.928 0-36.032 2.547-74.432 14.106zM222.899 676.378c0 16.269 13.069 29.402 29.35 29.402s29.35-13.133 29.35-29.402c0-12.006-7.13-22.298-17.626-26.854v-52.774h-23.795v52.928c-10.15 4.646-17.28 14.797-17.28 26.701z" />
<glyph unicode="&#xe93d;" glyph-name="wifi-quality-bars_bars5g-4" d="M24 116.8h156.8v-169.6h-156.8v169.6zM433.6 451.2h160v-505.6h-160v505.6zM638.4 617.6h160v-672h-160v672zM228.8 284.8h160v-339.2h-160v339.2zM326.272 796.429c-68.595 20.506-74.022 38.234-74.022 38.234s-5.427-17.741-74.022-38.234c-38.4-11.546-61.504-14.106-74.406-14.106-10.163 0-14.003 1.587-14.016 1.587 0.051-0.269 9.331-118.566 15.066-193.114 5.811-74.56 147.392-114.534 147.392-114.534s141.581 39.974 147.418 114.534c5.709 74.547 15.014 192.845 15.053 193.114-0.013 0-3.866-1.587-14.029-1.587-12.928 0-36.032 2.547-74.432 14.106zM222.899 676.378c0 16.269 13.069 29.402 29.35 29.402s29.35-13.133 29.35-29.402c0-12.006-7.13-22.298-17.626-26.854v-52.774h-23.795v52.915c-10.15 4.659-17.28 14.81-17.28 26.714z" />
<glyph unicode="&#xe93e;" glyph-name="wifi-quality-bars_bars5g-5" d="M24 116.8h156.8v-169.6h-156.8v169.6zM433.6 451.2h160v-505.6h-160v505.6zM638.4 617.6h160v-672h-160v672zM841.6 784h160v-838.4h-160v838.4zM228.8 284.8h160v-339.2h-160v339.2zM326.272 796.429c-68.595 20.506-74.022 38.234-74.022 38.234s-5.427-17.741-74.022-38.234c-38.4-11.546-61.504-14.106-74.406-14.106-10.163 0-14.003 1.587-14.016 1.587 0.051-0.269 9.331-118.566 15.066-193.114 5.811-74.56 147.392-114.534 147.392-114.534s141.581 39.974 147.418 114.534c5.709 74.547 15.014 192.845 15.053 193.114-0.013 0-3.866-1.587-14.029-1.587-12.928 0-36.032 2.547-74.432 14.106zM222.899 676.378c0 16.269 13.069 29.402 29.35 29.402s29.35-13.133 29.35-29.402c0-12.006-7.13-22.298-17.626-26.854v-52.774h-23.795v52.915c-10.15 4.659-17.28 14.81-17.28 26.714z" />
<glyph unicode="&#xe93f;" glyph-name="wifi-quality-bars_bars5h-1" d="M24 116.8h156.8v-169.6h-156.8v169.6zM433.6-54.4h160v505.6h-160v-505.6zM465.6 419.2h96v-441.6h-96v441.6zM638.4-54.4h160v672h-160v-672zM670.4 585.6h96v-608h-96v608zM841.6-54.4h160v838.4h-160v-838.4zM873.6 752h96v-774.4h-96v774.4zM228.8-54.4h160v339.2h-160v-339.2zM260.8 252.8h96v-275.2h-96v275.2zM326.272 796.429c-68.595 20.506-74.022 38.234-74.022 38.234s-5.427-17.741-74.022-38.234c-38.4-11.546-61.504-14.106-74.406-14.106-10.163 0-14.003 1.587-14.016 1.587 0.051-0.269 9.331-118.566 15.066-193.114 5.811-74.56 147.392-114.534 147.392-114.534s141.581 39.974 147.418 114.534c5.709 74.547 15.014 192.845 15.053 193.114-0.013 0-3.866-1.587-14.029-1.587-12.928 0-36.032 2.547-74.432 14.106zM222.899 676.378c0 16.269 13.069 29.402 29.35 29.402s29.35-13.133 29.35-29.402c0-12.006-7.13-22.298-17.626-26.854v-52.774h-23.795v52.928c-10.15 4.646-17.28 14.797-17.28 26.701z" />
<glyph unicode="&#xe940;" glyph-name="wifi-quality-bars_bars5h-2" d="M22.4 118.4h160v-172.8h-160v172.8zM433.6-54.4h160v505.6h-160v-505.6zM465.6 419.2h96v-441.6h-96v441.6zM638.4-54.4h160v672h-160v-672zM670.4 585.6h96v-608h-96v608zM841.6-54.4h160v838.4h-160v-838.4zM873.6 752h96v-774.4h-96v774.4zM228.8 284.8h160v-339.2h-160v339.2zM326.272 796.429c-68.595 20.506-74.022 38.234-74.022 38.234s-5.427-17.741-74.022-38.234c-38.4-11.546-61.504-14.106-74.406-14.106-10.163 0-14.003 1.587-14.016 1.587 0.051-0.269 9.331-118.566 15.066-193.114 5.811-74.56 147.392-114.534 147.392-114.534s141.581 39.974 147.418 114.534c5.709 74.547 15.014 192.845 15.053 193.114-0.013 0-3.866-1.587-14.029-1.587-12.928 0-36.032 2.547-74.432 14.106zM222.899 676.378c0 16.269 13.069 29.402 29.35 29.402s29.35-13.133 29.35-29.402c0-12.006-7.13-22.298-17.626-26.854v-52.774h-23.795v52.928c-10.15 4.646-17.28 14.797-17.28 26.701z" />
<glyph unicode="&#xe941;" glyph-name="wifi-quality-bars_bars5h-3" d="M24 116.8h156.8v-169.6h-156.8v169.6zM433.6 451.2h160v-505.6h-160v505.6zM638.4-54.4h160v672h-160v-672zM670.4 585.6h96v-608h-96v608zM841.6-54.4h160v838.4h-160v-838.4zM873.6 752h96v-774.4h-96v774.4zM228.8 284.8h160v-339.2h-160v339.2zM326.272 796.429c-68.595 20.506-74.022 38.234-74.022 38.234s-5.427-17.741-74.022-38.234c-38.4-11.546-61.504-14.106-74.406-14.106-10.163 0-14.003 1.587-14.016 1.587 0.051-0.269 9.331-118.566 15.066-193.114 5.811-74.56 147.392-114.534 147.392-114.534s141.581 39.974 147.418 114.534c5.709 74.547 15.014 192.845 15.053 193.114-0.013 0-3.866-1.587-14.029-1.587-12.928 0-36.032 2.547-74.432 14.106zM222.899 676.378c0 16.269 13.069 29.402 29.35 29.402s29.35-13.133 29.35-29.402c0-12.006-7.13-22.298-17.626-26.854v-52.774h-23.795v52.928c-10.15 4.646-17.28 14.797-17.28 26.701z" />
<glyph unicode="&#xe942;" glyph-name="wifi-quality-bars_bars5h-4" d="M24 116.8h156.8v-169.6h-156.8v169.6zM433.6 451.2h160v-505.6h-160v505.6zM638.4 617.6h160v-672h-160v672zM841.6-54.4h160v838.4h-160v-838.4zM873.6 752h96v-774.4h-96v774.4zM228.8 284.8h160v-339.2h-160v339.2zM326.272 796.429c-68.595 20.506-74.022 38.234-74.022 38.234s-5.427-17.741-74.022-38.234c-38.4-11.546-61.504-14.106-74.406-14.106-10.163 0-14.003 1.587-14.016 1.587 0.051-0.269 9.331-118.566 15.066-193.114 5.811-74.56 147.392-114.534 147.392-114.534s141.581 39.974 147.418 114.534c5.709 74.547 15.014 192.845 15.053 193.114-0.013 0-3.866-1.587-14.029-1.587-12.928 0-36.032 2.547-74.432 14.106zM222.899 676.378c0 16.269 13.069 29.402 29.35 29.402s29.35-13.133 29.35-29.402c0-12.006-7.13-22.298-17.626-26.854v-52.774h-23.795v52.915c-10.15 4.659-17.28 14.81-17.28 26.714z" />
</font>
</defs>
</svg>
